<?xml version="1.0" encoding="UTF-8" standalone="no"?>
<!DOCTYPE svg PUBLIC "-//W3C//DTD SVG 1.1//EN"
 "http://www.w3.org/Graphics/SVG/1.1/DTD/svg11.dtd">
<!-- Generated by graphviz version 2.43.0 (0)
 -->
<!-- Title: classes_decoy Pages: 1 -->
<svg width="6866pt" height="289pt"
 viewBox="0.00 0.00 6865.50 289.00" xmlns="http://www.w3.org/2000/svg" xmlns:xlink="http://www.w3.org/1999/xlink">
<g id="graph0" class="graph" transform="scale(1 1) rotate(0) translate(4 285)">
<title>classes_decoy</title>
<polygon fill="white" stroke="transparent" points="-4,4 -4,-285 6861.5,-285 6861.5,4 -4,4"/>
<!-- decoy.api.ConfigValidationError -->
<g id="node1" class="node">
<title>decoy.api.ConfigValidationError</title>
<polygon fill="none" stroke="black" points="0,-44.6 0,-115.4 173,-115.4 173,-44.6 0,-44.6"/>
<text text-anchor="start" x="8" y="-100.2" font-family="Times,serif" font-size="14.00" fill="red">ConfigValidationError</text>
<polyline fill="none" stroke="black" points="0,-92.4 173,-92.4 "/>
<polyline fill="none" stroke="black" points="0,-67.6 173,-67.6 "/>
<text text-anchor="start" x="84" y="-52.4" font-family="Times,serif" font-size="14.00" fill="red"> </text>
</g>
<!-- decoy.cli._init_inference.Inference -->
<g id="node2" class="node">
<title>decoy.cli._init_inference.Inference</title>
<polygon fill="none" stroke="black" points="191.5,-23 191.5,-137 353.5,-137 353.5,-23 191.5,-23"/>
<text text-anchor="start" x="238.5" y="-121.8" font-family="Times,serif" font-size="14.00">Inference</text>
<polyline fill="none" stroke="black" points="191.5,-114 353.5,-114 "/>
<text text-anchor="start" x="199.5" y="-98.8" font-family="Times,serif" font-size="14.00">deterministic : bool</text>
<text text-anchor="start" x="199.5" y="-83.8" font-family="Times,serif" font-size="14.00">provider : str | None</text>
<text text-anchor="start" x="199.5" y="-68.8" font-family="Times,serif" font-size="14.00">review : str</text>
<text text-anchor="start" x="199.5" y="-53.8" font-family="Times,serif" font-size="14.00">strategy : str</text>
<polyline fill="none" stroke="black" points="191.5,-46 353.5,-46 "/>
<text text-anchor="start" x="270" y="-30.8" font-family="Times,serif" font-size="14.00"> </text>
</g>
<!-- decoy.cli.storm.InputFormat -->
<g id="node3" class="node">
<title>decoy.cli.storm.InputFormat</title>
<polygon fill="none" stroke="black" points="372,-45.5 372,-114.5 479,-114.5 479,-45.5 372,-45.5"/>
<text text-anchor="start" x="380" y="-99.3" font-family="Times,serif" font-size="14.00">InputFormat</text>
<polyline fill="none" stroke="black" points="372,-91.5 479,-91.5 "/>
<text text-anchor="start" x="405.5" y="-76.3" font-family="Times,serif" font-size="14.00">name</text>
<polyline fill="none" stroke="black" points="372,-68.5 479,-68.5 "/>
<text text-anchor="start" x="423" y="-53.3" font-family="Times,serif" font-size="14.00"> </text>
</g>
<!-- decoy.api.MaskSecretConfigError -->
<g id="node4" class="node">
<title>decoy.api.MaskSecretConfigError</title>
<polygon fill="none" stroke="black" points="497.5,-44.6 497.5,-115.4 683.5,-115.4 683.5,-44.6 497.5,-44.6"/>
<text text-anchor="start" x="505.5" y="-100.2" font-family="Times,serif" font-size="14.00" fill="red">MaskSecretConfigError</text>
<polyline fill="none" stroke="black" points="497.5,-92.4 683.5,-92.4 "/>
<polyline fill="none" stroke="black" points="497.5,-67.6 683.5,-67.6 "/>
<text text-anchor="start" x="588" y="-52.4" font-family="Times,serif" font-size="14.00" fill="red"> </text>
</g>
<!-- decoy.cli.extras.MissingExtraError -->
<g id="node5" class="node">
<title>decoy.cli.extras.MissingExtraError</title>
<polygon fill="none" stroke="black" points="701.5,-45.5 701.5,-114.5 853.5,-114.5 853.5,-45.5 701.5,-45.5"/>
<text text-anchor="start" x="709.5" y="-99.3" font-family="Times,serif" font-size="14.00" fill="red">MissingExtraError</text>
<polyline fill="none" stroke="black" points="701.5,-91.5 853.5,-91.5 "/>
<text text-anchor="start" x="758.5" y="-76.3" font-family="Times,serif" font-size="14.00" fill="red">extra</text>
<polyline fill="none" stroke="black" points="701.5,-68.5 853.5,-68.5 "/>
<text text-anchor="start" x="775" y="-53.3" font-family="Times,serif" font-size="14.00" fill="red"> </text>
</g>
<!-- decoy.cli.run.Mode -->
<g id="node6" class="node">
<title>decoy.cli.run.Mode</title>
<polygon fill="none" stroke="black" points="871.5,-45.5 871.5,-114.5 927.5,-114.5 927.5,-45.5 871.5,-45.5"/>
<text text-anchor="start" x="879.5" y="-99.3" font-family="Times,serif" font-size="14.00">Mode</text>
<polyline fill="none" stroke="black" points="871.5,-91.5 927.5,-91.5 "/>
<text text-anchor="start" x="879.5" y="-76.3" font-family="Times,serif" font-size="14.00">name</text>
<polyline fill="none" stroke="black" points="871.5,-68.5 927.5,-68.5 "/>
<text text-anchor="start" x="897" y="-53.3" font-family="Times,serif" font-size="14.00"> </text>
</g>
<!-- decoy._native_gate.NativeGateError -->
<g id="node7" class="node">
<title>decoy._native_gate.NativeGateError</title>
<polygon fill="none" stroke="black" points="946,-45.5 946,-114.5 1083,-114.5 1083,-45.5 946,-45.5"/>
<text text-anchor="start" x="954" y="-99.3" font-family="Times,serif" font-size="14.00" fill="red">NativeGateError</text>
<polyline fill="none" stroke="black" points="946,-91.5 1083,-91.5 "/>
<text text-anchor="start" x="997.5" y="-76.3" font-family="Times,serif" font-size="14.00" fill="red">code</text>
<polyline fill="none" stroke="black" points="946,-68.5 1083,-68.5 "/>
<text text-anchor="start" x="1012" y="-53.3" font-family="Times,serif" font-size="14.00" fill="red"> </text>
</g>
<!-- decoy.notify.NotifyChannel -->
<g id="node8" class="node">
<title>decoy.notify.NotifyChannel</title>
<polygon fill="none" stroke="black" points="1101,-38 1101,-122 1220,-122 1220,-38 1101,-38"/>
<text text-anchor="start" x="1109" y="-106.8" font-family="Times,serif" font-size="14.00">NotifyChannel</text>
<polyline fill="none" stroke="black" points="1101,-99 1220,-99 "/>
<text text-anchor="start" x="1114.5" y="-83.8" font-family="Times,serif" font-size="14.00">kind : Literal</text>
<text text-anchor="start" x="1114.5" y="-68.8" font-family="Times,serif" font-size="14.00">target : str</text>
<polyline fill="none" stroke="black" points="1101,-61 1220,-61 "/>
<text text-anchor="start" x="1158" y="-45.8" font-family="Times,serif" font-size="14.00"> </text>
</g>
<!-- decoy.cli.run.NotifyOn -->
<g id="node9" class="node">
<title>decoy.cli.run.NotifyOn</title>
<polygon fill="none" stroke="black" points="1238,-45.5 1238,-114.5 1319,-114.5 1319,-45.5 1238,-45.5"/>
<text text-anchor="start" x="1246" y="-99.3" font-family="Times,serif" font-size="14.00">NotifyOn</text>
<polyline fill="none" stroke="black" points="1238,-91.5 1319,-91.5 "/>
<text text-anchor="start" x="1258.5" y="-76.3" font-family="Times,serif" font-size="14.00">name</text>
<polyline fill="none" stroke="black" points="1238,-68.5 1319,-68.5 "/>
<text text-anchor="start" x="1276" y="-53.3" font-family="Times,serif" font-size="14.00"> </text>
</g>
<!-- decoy.notify.NotifyResult -->
<g id="node10" class="node">
<title>decoy.notify.NotifyResult</title>
<polygon fill="none" stroke="black" points="1337.5,-23 1337.5,-137 1479.5,-137 1479.5,-23 1337.5,-23"/>
<text text-anchor="start" x="1363" y="-121.8" font-family="Times,serif" font-size="14.00">NotifyResult</text>
<polyline fill="none" stroke="black" points="1337.5,-114 1479.5,-114 "/>
<text text-anchor="start" x="1345.5" y="-98.8" font-family="Times,serif" font-size="14.00">delivered : bool</text>
<text text-anchor="start" x="1345.5" y="-83.8" font-family="Times,serif" font-size="14.00">detail : str | None</text>
<text text-anchor="start" x="1345.5" y="-68.8" font-family="Times,serif" font-size="14.00">kind : Literal</text>
<text text-anchor="start" x="1345.5" y="-53.8" font-family="Times,serif" font-size="14.00">target_host : str</text>
<polyline fill="none" stroke="black" points="1337.5,-46 1479.5,-46 "/>
<text text-anchor="start" x="1406" y="-30.8" font-family="Times,serif" font-size="14.00"> </text>
</g>
<!-- decoy.notify.NotifySpecError -->
<g id="node11" class="node">
<title>decoy.notify.NotifySpecError</title>
<polygon fill="none" stroke="black" points="1497.5,-44.6 1497.5,-115.4 1631.5,-115.4 1631.5,-44.6 1497.5,-44.6"/>
<text text-anchor="start" x="1505.5" y="-100.2" font-family="Times,serif" font-size="14.00" fill="red">NotifySpecError</text>
<polyline fill="none" stroke="black" points="1497.5,-92.4 1631.5,-92.4 "/>
<polyline fill="none" stroke="black" points="1497.5,-67.6 1631.5,-67.6 "/>
<text text-anchor="start" x="1562" y="-52.4" font-family="Times,serif" font-size="14.00" fill="red"> </text>
</g>
<!-- decoy.ui.output.OutputMode -->
<g id="node12" class="node">
<title>decoy.ui.output.OutputMode</title>
<polygon fill="none" stroke="black" points="1680,-211.5 1680,-280.5 1787,-280.5 1787,-211.5 1680,-211.5"/>
<text text-anchor="start" x="1688" y="-265.3" font-family="Times,serif" font-size="14.00">OutputMode</text>
<polyline fill="none" stroke="black" points="1680,-257.5 1787,-257.5 "/>
<text text-anchor="start" x="1713.5" y="-242.3" font-family="Times,serif" font-size="14.00">name</text>
<polyline fill="none" stroke="black" points="1680,-234.5 1787,-234.5 "/>
<text text-anchor="start" x="1731" y="-219.3" font-family="Times,serif" font-size="14.00"> </text>
</g>
<!-- decoy.ui.output.OutputState -->
<g id="node13" class="node">
<title>decoy.ui.output.OutputState</title>
<polygon fill="none" stroke="black" points="1649.5,-23 1649.5,-137 1817.5,-137 1817.5,-23 1649.5,-23"/>
<text text-anchor="start" x="1689" y="-121.8" font-family="Times,serif" font-size="14.00">OutputState</text>
<polyline fill="none" stroke="black" points="1649.5,-114 1817.5,-114 "/>
<text text-anchor="start" x="1657.5" y="-98.8" font-family="Times,serif" font-size="14.00">console : Console</text>
<text text-anchor="start" x="1657.5" y="-83.8" font-family="Times,serif" font-size="14.00">err_console : Console</text>
<text text-anchor="start" x="1657.5" y="-68.8" font-family="Times,serif" font-size="14.00">mode</text>
<text text-anchor="start" x="1657.5" y="-53.8" font-family="Times,serif" font-size="14.00">verbose : bool</text>
<polyline fill="none" stroke="black" points="1649.5,-46 1817.5,-46 "/>
<text text-anchor="start" x="1731" y="-30.8" font-family="Times,serif" font-size="14.00"> </text>
</g>
<!-- decoy.ui.output.OutputState&#45;&gt;decoy.ui.output.OutputMode -->
<g id="edge1" class="edge">
<title>decoy.ui.output.OutputState&#45;&gt;decoy.ui.output.OutputMode</title>
<path fill="none" stroke="black" d="M1733.5,-137.44C1733.5,-158.33 1733.5,-181.68 1733.5,-201.27"/>
<polygon fill="black" stroke="black" points="1733.5,-211.44 1729,-201.44 1733.5,-206.44 1733.5,-201.44 1733.5,-201.44 1733.5,-201.44 1733.5,-206.44 1738,-201.44 1733.5,-211.44 1733.5,-211.44"/>
<text text-anchor="middle" x="1753.5" y="-181.8" font-family="Times,serif" font-size="14.00" fill="green">mode</text>
</g>
<!-- decoy.cli.storm.PiiLevel -->
<g id="node14" class="node">
<title>decoy.cli.storm.PiiLevel</title>
<polygon fill="none" stroke="black" points="1835.5,-45.5 1835.5,-114.5 1909.5,-114.5 1909.5,-45.5 1835.5,-45.5"/>
<text text-anchor="start" x="1843.5" y="-99.3" font-family="Times,serif" font-size="14.00">PiiLevel</text>
<polyline fill="none" stroke="black" points="1835.5,-91.5 1909.5,-91.5 "/>
<text text-anchor="start" x="1852.5" y="-76.3" font-family="Times,serif" font-size="14.00">name</text>
<polyline fill="none" stroke="black" points="1835.5,-68.5 1909.5,-68.5 "/>
<text text-anchor="start" x="1870" y="-53.3" font-family="Times,serif" font-size="14.00"> </text>
</g>
<!-- decoy._native_gate.PreGateResult -->
<g id="node15" class="node">
<title>decoy._native_gate.PreGateResult</title>
<polygon fill="none" stroke="black" points="1928,-30.5 1928,-129.5 2139,-129.5 2139,-30.5 1928,-30.5"/>
<text text-anchor="start" x="1981" y="-114.3" font-family="Times,serif" font-size="14.00">PreGateResult</text>
<polyline fill="none" stroke="black" points="1928,-106.5 2139,-106.5 "/>
<text text-anchor="start" x="1936" y="-91.3" font-family="Times,serif" font-size="14.00">info_message : str | None</text>
<text text-anchor="start" x="1936" y="-76.3" font-family="Times,serif" font-size="14.00">unified_slice_enabled : bool</text>
<text text-anchor="start" x="1936" y="-61.3" font-family="Times,serif" font-size="14.00">warn_message : str | None</text>
<polyline fill="none" stroke="black" points="1928,-53.5 2139,-53.5 "/>
<text text-anchor="start" x="2031" y="-38.3" font-family="Times,serif" font-size="14.00"> </text>
</g>
<!-- decoy._native_gate.RouteClassification -->
<g id="node16" class="node">
<title>decoy._native_gate.RouteClassification</title>
<polygon fill="none" stroke="black" points="2157.5,-30.5 2157.5,-129.5 2555.5,-129.5 2555.5,-30.5 2157.5,-30.5"/>
<text text-anchor="start" x="2287.5" y="-114.3" font-family="Times,serif" font-size="14.00">RouteClassification</text>
<polyline fill="none" stroke="black" points="2157.5,-106.5 2555.5,-106.5 "/>
<text text-anchor="start" x="2165.5" y="-91.3" font-family="Times,serif" font-size="14.00">applicable : bool</text>
<text text-anchor="start" x="2165.5" y="-76.3" font-family="Times,serif" font-size="14.00">label : str</text>
<text text-anchor="start" x="2165.5" y="-61.3" font-family="Times,serif" font-size="14.00">state : Literal[&#39;native&#39;, &#39;unified_slice&#39;, &#39;pandas&#39;] | None</text>
<polyline fill="none" stroke="black" points="2157.5,-53.5 2555.5,-53.5 "/>
<text text-anchor="start" x="2354" y="-38.3" font-family="Times,serif" font-size="14.00"> </text>
</g>
<!-- decoy.cli.storm.SampleStrategy -->
<g id="node17" class="node">
<title>decoy.cli.storm.SampleStrategy</title>
<polygon fill="none" stroke="black" points="2573.5,-45.5 2573.5,-114.5 2705.5,-114.5 2705.5,-45.5 2573.5,-45.5"/>
<text text-anchor="start" x="2581.5" y="-99.3" font-family="Times,serif" font-size="14.00">SampleStrategy</text>
<polyline fill="none" stroke="black" points="2573.5,-91.5 2705.5,-91.5 "/>
<text text-anchor="start" x="2619.5" y="-76.3" font-family="Times,serif" font-size="14.00">name</text>
<polyline fill="none" stroke="black" points="2573.5,-68.5 2705.5,-68.5 "/>
<text text-anchor="start" x="2637" y="-53.3" font-family="Times,serif" font-size="14.00"> </text>
</g>
<!-- decoy.notify.SmtpConfig -->
<g id="node18" class="node">
<title>decoy.notify.SmtpConfig</title>
<polygon fill="none" stroke="black" points="2724,-8 2724,-152 2899,-152 2899,-8 2724,-8"/>
<text text-anchor="start" x="2769" y="-136.8" font-family="Times,serif" font-size="14.00">SmtpConfig</text>
<polyline fill="none" stroke="black" points="2724,-129 2899,-129 "/>
<text text-anchor="start" x="2732" y="-113.8" font-family="Times,serif" font-size="14.00">configured : bool</text>
<text text-anchor="start" x="2732" y="-98.8" font-family="Times,serif" font-size="14.00">from_addr : str | None</text>
<text text-anchor="start" x="2732" y="-83.8" font-family="Times,serif" font-size="14.00">host : str</text>
<text text-anchor="start" x="2732" y="-68.8" font-family="Times,serif" font-size="14.00">password : str | None</text>
<text text-anchor="start" x="2732" y="-53.8" font-family="Times,serif" font-size="14.00">port : int</text>
<text text-anchor="start" x="2732" y="-38.8" font-family="Times,serif" font-size="14.00">user : str | None</text>
<polyline fill="none" stroke="black" points="2724,-31 2899,-31 "/>
<text text-anchor="start" x="2809" y="-15.8" font-family="Times,serif" font-size="14.00"> </text>
</g>
<!-- decoy.templates.Template -->
<g id="node19" class="node">
<title>decoy.templates.Template</title>
<polygon fill="none" stroke="black" points="2917,-30.5 2917,-129.5 3034,-129.5 3034,-30.5 2917,-30.5"/>
<text text-anchor="start" x="2942" y="-114.3" font-family="Times,serif" font-size="14.00">Template</text>
<polyline fill="none" stroke="black" points="2917,-106.5 3034,-106.5 "/>
<text text-anchor="start" x="2925" y="-91.3" font-family="Times,serif" font-size="14.00">body : str</text>
<text text-anchor="start" x="2925" y="-76.3" font-family="Times,serif" font-size="14.00">name : str</text>
<text text-anchor="start" x="2925" y="-61.3" font-family="Times,serif" font-size="14.00">summary : str</text>
<polyline fill="none" stroke="black" points="2917,-53.5 3034,-53.5 "/>
<text text-anchor="start" x="2973" y="-38.3" font-family="Times,serif" font-size="14.00"> </text>
</g>
<!-- decoy.cli.extras.UnsupportedCloudEndpointError -->
<g id="node20" class="node">
<title>decoy.cli.extras.UnsupportedCloudEndpointError</title>
<polygon fill="none" stroke="black" points="3052.5,-44.6 3052.5,-115.4 3308.5,-115.4 3308.5,-44.6 3052.5,-44.6"/>
<text text-anchor="start" x="3060.5" y="-100.2" font-family="Times,serif" font-size="14.00" fill="red">UnsupportedCloudEndpointError</text>
<polyline fill="none" stroke="black" points="3052.5,-92.4 3308.5,-92.4 "/>
<polyline fill="none" stroke="black" points="3052.5,-67.6 3308.5,-67.6 "/>
<text text-anchor="start" x="3178" y="-52.4" font-family="Times,serif" font-size="14.00" fill="red"> </text>
</g>
<!-- decoy.ui.progress._BarHandle -->
<g id="node21" class="node">
<title>decoy.ui.progress._BarHandle</title>
<polygon fill="none" stroke="black" points="3326.5,-44.6 3326.5,-115.4 3496.5,-115.4 3496.5,-44.6 3326.5,-44.6"/>
<text text-anchor="start" x="3369.5" y="-100.2" font-family="Times,serif" font-size="14.00">_BarHandle</text>
<polyline fill="none" stroke="black" points="3326.5,-92.4 3496.5,-92.4 "/>
<polyline fill="none" stroke="black" points="3326.5,-67.6 3496.5,-67.6 "/>
<text text-anchor="start" x="3334.5" y="-52.4" font-family="Times,serif" font-size="14.00">advance(n: int): None</text>
</g>
<!-- decoy.cli.preflight._CheckResult -->
<g id="node22" class="node">
<title>decoy.cli.preflight._CheckResult</title>
<polygon fill="none" stroke="black" points="3514.5,-15.5 3514.5,-144.5 3690.5,-144.5 3690.5,-15.5 3514.5,-15.5"/>
<text text-anchor="start" x="3554" y="-129.3" font-family="Times,serif" font-size="14.00">_CheckResult</text>
<polyline fill="none" stroke="black" points="3514.5,-121.5 3690.5,-121.5 "/>
<text text-anchor="start" x="3531.5" y="-106.3" font-family="Times,serif" font-size="14.00">code : str | None</text>
<text text-anchor="start" x="3531.5" y="-91.3" font-family="Times,serif" font-size="14.00">location : str | None</text>
<text text-anchor="start" x="3531.5" y="-76.3" font-family="Times,serif" font-size="14.00">message : str</text>
<text text-anchor="start" x="3531.5" y="-61.3" font-family="Times,serif" font-size="14.00">name : str</text>
<text text-anchor="start" x="3531.5" y="-46.3" font-family="Times,serif" font-size="14.00">status : str</text>
<polyline fill="none" stroke="black" points="3514.5,-38.5 3690.5,-38.5 "/>
<text text-anchor="start" x="3522.5" y="-23.3" font-family="Times,serif" font-size="14.00">to_dict(): dict[str, Any]</text>
</g>
<!-- decoy.cli.run._ChunkedFixedWidthError -->
<g id="node23" class="node">
<title>decoy.cli.run._ChunkedFixedWidthError</title>
<polygon fill="none" stroke="black" points="3708.5,-44.6 3708.5,-115.4 3916.5,-115.4 3916.5,-44.6 3708.5,-44.6"/>
<text text-anchor="start" x="3716.5" y="-100.2" font-family="Times,serif" font-size="14.00" fill="red">_ChunkedFixedWidthError</text>
<polyline fill="none" stroke="black" points="3708.5,-92.4 3916.5,-92.4 "/>
<polyline fill="none" stroke="black" points="3708.5,-67.6 3916.5,-67.6 "/>
<text text-anchor="start" x="3810" y="-52.4" font-family="Times,serif" font-size="14.00" fill="red"> </text>
</g>
<!-- decoy.cli.run._ChunkedGenerateError -->
<g id="node24" class="node">
<title>decoy.cli.run._ChunkedGenerateError</title>
<polygon fill="none" stroke="black" points="3935,-44.6 3935,-115.4 4126,-115.4 4126,-44.6 3935,-44.6"/>
<text text-anchor="start" x="3943" y="-100.2" font-family="Times,serif" font-size="14.00" fill="red">_ChunkedGenerateError</text>
<polyline fill="none" stroke="black" points="3935,-92.4 4126,-92.4 "/>
<polyline fill="none" stroke="black" points="3935,-67.6 4126,-67.6 "/>
<text text-anchor="start" x="4028" y="-52.4" font-family="Times,serif" font-size="14.00" fill="red"> </text>
</g>
<!-- decoy.cli.run._ConfigValidationError -->
<g id="node25" class="node">
<title>decoy.cli.run._ConfigValidationError</title>
<polygon fill="none" stroke="black" points="4144,-44.6 4144,-115.4 4323,-115.4 4323,-44.6 4144,-44.6"/>
<text text-anchor="start" x="4152" y="-100.2" font-family="Times,serif" font-size="14.00" fill="red">_ConfigValidationError</text>
<polyline fill="none" stroke="black" points="4144,-92.4 4323,-92.4 "/>
<polyline fill="none" stroke="black" points="4144,-67.6 4323,-67.6 "/>
<text text-anchor="start" x="4231" y="-52.4" font-family="Times,serif" font-size="14.00" fill="red"> </text>
</g>
<!-- decoy.cli.fit._FitUsageError -->
<g id="node26" class="node">
<title>decoy.cli.fit._FitUsageError</title>
<polygon fill="none" stroke="black" points="4341.5,-38 4341.5,-122 4469.5,-122 4469.5,-38 4341.5,-38"/>
<text text-anchor="start" x="4349.5" y="-106.8" font-family="Times,serif" font-size="14.00" fill="red">_FitUsageError</text>
<polyline fill="none" stroke="black" points="4341.5,-99 4469.5,-99 "/>
<text text-anchor="start" x="4357" y="-83.8" font-family="Times,serif" font-size="14.00" fill="red">code</text>
<text text-anchor="start" x="4357" y="-68.8" font-family="Times,serif" font-size="14.00" fill="red">message : str</text>
<polyline fill="none" stroke="black" points="4341.5,-61 4469.5,-61 "/>
<text text-anchor="start" x="4403" y="-45.8" font-family="Times,serif" font-size="14.00" fill="red"> </text>
</g>
<!-- decoy.cli.run._MaskSecretUsageError -->
<g id="node27" class="node">
<title>decoy.cli.run._MaskSecretUsageError</title>
<polygon fill="none" stroke="black" points="4487.5,-44.6 4487.5,-115.4 4679.5,-115.4 4679.5,-44.6 4487.5,-44.6"/>
<text text-anchor="start" x="4495.5" y="-100.2" font-family="Times,serif" font-size="14.00" fill="red">_MaskSecretUsageError</text>
<polyline fill="none" stroke="black" points="4487.5,-92.4 4679.5,-92.4 "/>
<polyline fill="none" stroke="black" points="4487.5,-67.6 4679.5,-67.6 "/>
<text text-anchor="start" x="4581" y="-52.4" font-family="Times,serif" font-size="14.00" fill="red"> </text>
</g>
<!-- decoy.ui.progress._MultistageHandle -->
<g id="node28" class="node">
<title>decoy.ui.progress._MultistageHandle</title>
<polygon fill="none" stroke="black" points="4697.5,-23 4697.5,-137 4849.5,-137 4849.5,-23 4697.5,-23"/>
<text text-anchor="start" x="4705.5" y="-121.8" font-family="Times,serif" font-size="14.00">_MultistageHandle</text>
<polyline fill="none" stroke="black" points="4697.5,-114 4849.5,-114 "/>
<text text-anchor="start" x="4719" y="-98.8" font-family="Times,serif" font-size="14.00">DONE : str</text>
<text text-anchor="start" x="4719" y="-83.8" font-family="Times,serif" font-size="14.00">PENDING : str</text>
<text text-anchor="start" x="4719" y="-68.8" font-family="Times,serif" font-size="14.00">RUNNING : str</text>
<polyline fill="none" stroke="black" points="4697.5,-61 4849.5,-61 "/>
<text text-anchor="start" x="4712" y="-45.8" font-family="Times,serif" font-size="14.00">complete(): None</text>
<text text-anchor="start" x="4712" y="-30.8" font-family="Times,serif" font-size="14.00">start(): None</text>
</g>
<!-- decoy._native_gate._NativeProbeUnavailable -->
<g id="node29" class="node">
<title>decoy._native_gate._NativeProbeUnavailable</title>
<polygon fill="none" stroke="black" points="4868,-44.6 4868,-115.4 5065,-115.4 5065,-44.6 4868,-44.6"/>
<text text-anchor="start" x="4876" y="-100.2" font-family="Times,serif" font-size="14.00" fill="red">_NativeProbeUnavailable</text>
<polyline fill="none" stroke="black" points="4868,-92.4 5065,-92.4 "/>
<polyline fill="none" stroke="black" points="4868,-67.6 5065,-67.6 "/>
<text text-anchor="start" x="4964" y="-52.4" font-family="Times,serif" font-size="14.00" fill="red"> </text>
</g>
<!-- decoy.cli.preflight._PreflightAccumulator -->
<g id="node30" class="node">
<title>decoy.cli.preflight._PreflightAccumulator</title>
<polygon fill="none" stroke="black" points="5083.5,-0.5 5083.5,-159.5 5659.5,-159.5 5659.5,-0.5 5083.5,-0.5"/>
<text text-anchor="start" x="5291.5" y="-144.3" font-family="Times,serif" font-size="14.00">_PreflightAccumulator</text>
<polyline fill="none" stroke="black" points="5083.5,-136.5 5659.5,-136.5 "/>
<text text-anchor="start" x="5276" y="-121.3" font-family="Times,serif" font-size="14.00">capacity_insufficient : bool</text>
<text text-anchor="start" x="5276" y="-106.3" font-family="Times,serif" font-size="14.00">checks : list[_CheckResult]</text>
<text text-anchor="start" x="5276" y="-91.3" font-family="Times,serif" font-size="14.00">has_failures : bool</text>
<text text-anchor="start" x="5276" y="-76.3" font-family="Times,serif" font-size="14.00">has_warnings : bool</text>
<polyline fill="none" stroke="black" points="5083.5,-68.5 5659.5,-68.5 "/>
<text text-anchor="start" x="5091.5" y="-53.3" font-family="Times,serif" font-size="14.00">add_fail(name: str, message: str, location: str | None, code: str | None): None</text>
<text text-anchor="start" x="5091.5" y="-38.3" font-family="Times,serif" font-size="14.00">add_pass(name: str, message: str, location: str | None, code: str | None): None</text>
<text text-anchor="start" x="5091.5" y="-23.3" font-family="Times,serif" font-size="14.00">add_warn(name: str, message: str, location: str | None, code: str | None): None</text>
<text text-anchor="start" x="5091.5" y="-8.3" font-family="Times,serif" font-size="14.00">to_dicts(): list[dict[str, Any]]</text>
</g>
<!-- decoy.ui.storm_animation._StormyHandle -->
<g id="node31" class="node">
<title>decoy.ui.storm_animation._StormyHandle</title>
<polygon fill="none" stroke="black" points="5678,-37.1 5678,-122.9 5817,-122.9 5817,-37.1 5678,-37.1"/>
<text text-anchor="start" x="5692" y="-107.7" font-family="Times,serif" font-size="14.00">_StormyHandle</text>
<polyline fill="none" stroke="black" points="5678,-99.9 5817,-99.9 "/>
<polyline fill="none" stroke="black" points="5678,-75.1 5817,-75.1 "/>
<text text-anchor="start" x="5686" y="-59.9" font-family="Times,serif" font-size="14.00">complete(): None</text>
<text text-anchor="start" x="5686" y="-44.9" font-family="Times,serif" font-size="14.00">refresh(): None</text>
</g>
<!-- decoy.cli.explain._Topic -->
<g id="node32" class="node">
<title>decoy.cli.explain._Topic</title>
<polygon fill="none" stroke="black" points="5835.5,-23 5835.5,-137 6013.5,-137 6013.5,-23 5835.5,-23"/>
<text text-anchor="start" x="5902" y="-121.8" font-family="Times,serif" font-size="14.00">_Topic</text>
<polyline fill="none" stroke="black" points="5835.5,-114 6013.5,-114 "/>
<text text-anchor="start" x="5843.5" y="-98.8" font-family="Times,serif" font-size="14.00">body : str</text>
<text text-anchor="start" x="5843.5" y="-83.8" font-family="Times,serif" font-size="14.00">name : str</text>
<text text-anchor="start" x="5843.5" y="-68.8" font-family="Times,serif" font-size="14.00">see_also : tuple[str, ...]</text>
<text text-anchor="start" x="5843.5" y="-53.8" font-family="Times,serif" font-size="14.00">summary : str</text>
<polyline fill="none" stroke="black" points="5835.5,-46 6013.5,-46 "/>
<text text-anchor="start" x="5922" y="-30.8" font-family="Times,serif" font-size="14.00"> </text>
</g>
<!-- decoy.cli.validate._ValidationAccumulator -->
<g id="node33" class="node">
<title>decoy.cli.validate._ValidationAccumulator</title>
<polygon fill="none" stroke="black" points="6031.5,-15.5 6031.5,-144.5 6501.5,-144.5 6501.5,-15.5 6031.5,-15.5"/>
<text text-anchor="start" x="6182" y="-129.3" font-family="Times,serif" font-size="14.00">_ValidationAccumulator</text>
<polyline fill="none" stroke="black" points="6031.5,-121.5 6501.5,-121.5 "/>
<text text-anchor="start" x="6137.5" y="-106.3" font-family="Times,serif" font-size="14.00">has_errors : bool</text>
<text text-anchor="start" x="6137.5" y="-91.3" font-family="Times,serif" font-size="14.00">has_warnings : bool</text>
<text text-anchor="start" x="6137.5" y="-76.3" font-family="Times,serif" font-size="14.00">messages : list[_ValidationMessage]</text>
<polyline fill="none" stroke="black" points="6031.5,-68.5 6501.5,-68.5 "/>
<text text-anchor="start" x="6039.5" y="-53.3" font-family="Times,serif" font-size="14.00">add_error(code: str, message: str, location: str | None): None</text>
<text text-anchor="start" x="6039.5" y="-38.3" font-family="Times,serif" font-size="14.00">add_warning(code: str, message: str, location: str | None): None</text>
<text text-anchor="start" x="6039.5" y="-23.3" font-family="Times,serif" font-size="14.00">to_dicts(): list[dict[str, Any]]</text>
</g>
<!-- decoy.cli.validate._ValidationMessage -->
<g id="node34" class="node">
<title>decoy.cli.validate._ValidationMessage</title>
<polygon fill="none" stroke="black" points="6519.5,-23 6519.5,-137 6695.5,-137 6695.5,-23 6519.5,-23"/>
<text text-anchor="start" x="6536.5" y="-121.8" font-family="Times,serif" font-size="14.00">_ValidationMessage</text>
<polyline fill="none" stroke="black" points="6519.5,-114 6695.5,-114 "/>
<text text-anchor="start" x="6536.5" y="-98.8" font-family="Times,serif" font-size="14.00">code : str</text>
<text text-anchor="start" x="6536.5" y="-83.8" font-family="Times,serif" font-size="14.00">location : str | None</text>
<text text-anchor="start" x="6536.5" y="-68.8" font-family="Times,serif" font-size="14.00">message : str</text>
<text text-anchor="start" x="6536.5" y="-53.8" font-family="Times,serif" font-size="14.00">severity : str</text>
<polyline fill="none" stroke="black" points="6519.5,-46 6695.5,-46 "/>
<text text-anchor="start" x="6527.5" y="-30.8" font-family="Times,serif" font-size="14.00">to_dict(): dict[str, Any]</text>
</g>
<!-- decoy.cli.run._VaultUsageError -->
<g id="node35" class="node">
<title>decoy.cli.run._VaultUsageError</title>
<polygon fill="none" stroke="black" points="6713.5,-44.6 6713.5,-115.4 6857.5,-115.4 6857.5,-44.6 6713.5,-44.6"/>
<text text-anchor="start" x="6721.5" y="-100.2" font-family="Times,serif" font-size="14.00" fill="red">_VaultUsageError</text>
<polyline fill="none" stroke="black" points="6713.5,-92.4 6857.5,-92.4 "/>
<polyline fill="none" stroke="black" points="6713.5,-67.6 6857.5,-67.6 "/>
<text text-anchor="start" x="6783" y="-52.4" font-family="Times,serif" font-size="14.00" fill="red"> </text>
</g>
</g>
</svg>
